<svg width="20" height="20" viewBox="0 0 20 20" fill="none" xmlns="http://www.w3.org/2000/svg">
<path d="M19.6734 17.5536C19.0306 16.9805 18.4677 16.3235 18.0001 15.6003C17.4896 14.602 17.1836 13.5117 17.1001 12.3936V9.10026C17.1045 7.344 16.4675 5.64658 15.3086 4.32691C14.1498 3.00724 12.5489 2.15617 10.8068 1.93359V1.07359C10.8068 0.837551 10.713 0.611176 10.5461 0.444269C10.3792 0.277361 10.1528 0.183594 9.91678 0.183594C9.68074 0.183594 9.45436 0.277361 9.28746 0.444269C9.12055 0.611176 9.02678 0.837551 9.02678 1.07359V1.94693C7.30029 2.18555 5.71876 3.04176 4.57513 4.357C3.4315 5.67223 2.80327 7.35736 2.80678 9.10026V12.3936C2.72328 13.5117 2.4173 14.602 1.90678 15.6003C1.44737 16.3218 0.893577 16.9788 0.260114 17.5536C0.189002 17.6161 0.132008 17.693 0.0929255 17.7792C0.0538429 17.8654 0.0335671 17.9589 0.0334473 18.0536V18.9603C0.0334473 19.1371 0.103685 19.3066 0.228709 19.4317C0.353734 19.5567 0.523303 19.6269 0.700114 19.6269H19.2334C19.4103 19.6269 19.5798 19.5567 19.7049 19.4317C19.8299 19.3066 19.9001 19.1371 19.9001 18.9603V18.0536C19.9 17.9589 19.8797 17.8654 19.8406 17.7792C19.8016 17.693 19.7446 17.6161 19.6734 17.5536ZM1.42011 18.2936C2.04039 17.6944 2.58651 17.0229 3.04678 16.2936C3.68986 15.0879 4.06507 13.7576 4.14678 12.3936V9.10026C4.12034 8.31895 4.2514 7.54031 4.53214 6.81071C4.81289 6.0811 5.23759 5.41545 5.78095 4.85339C6.3243 4.29134 6.97521 3.84437 7.6949 3.53911C8.41459 3.23385 9.18836 3.07653 9.97011 3.07653C10.7519 3.07653 11.5256 3.23385 12.2453 3.53911C12.965 3.84437 13.6159 4.29134 14.1593 4.85339C14.7026 5.41545 15.1273 6.0811 15.4081 6.81071C15.6888 7.54031 15.8199 8.31895 15.7934 9.10026V12.3936C15.8752 13.7576 16.2504 15.0879 16.8934 16.2936C17.3537 17.0229 17.8998 17.6944 18.5201 18.2936H1.42011Z" fill="#333333"/>
</svg>
