<svg width="275" height="85" viewBox="0 0 275 85" fill="none" xmlns="http://www.w3.org/2000/svg">
<g filter="url(#filter0_d_1021_12180)">
<rect x="2" y="7" width="270.851" height="71" rx="8" fill="#E5EFF4" fill-opacity="0.4" shape-rendering="crispEdges"/>
<path d="M79.8588 43.6934L76.4457 47.7368C75.307 49.0845 73.7632 49.8415 72.1536 49.8415C70.544 49.8415 69.0002 49.0845 67.8615 47.7368L63.2351 42.2561C63.04 42.0242 62.8082 41.8403 62.553 41.7148C62.2978 41.5893 62.0242 41.5247 61.7479 41.5247C61.4716 41.5247 61.198 41.5893 60.9428 41.7148C60.6876 41.8403 60.4558 42.0242 60.2607 42.2561L55.6343 47.7368C54.4956 49.0845 52.9518 49.8415 51.3422 49.8415C49.7326 49.8415 48.1888 49.0845 47.0501 47.7368L42.7293 42.6181C42.3331 42.1562 41.7995 41.8973 41.2436 41.8973C40.6878 41.8973 40.1542 42.1562 39.758 42.6181L32.9257 50.7119L31.9635 51.8375C31.5215 52.3813 30.964 52.7742 30.3496 52.9747C29.7352 53.1753 29.0866 53.1762 28.4718 52.9773L28.4264 52.9594C27.8917 52.7571 27.4057 52.4062 27.0088 51.936C26.6119 51.4659 26.3157 50.8901 26.1449 50.2567C26.1449 50.2567 26.1449 50.2208 26.1298 50.2029C25.9586 49.4729 25.9567 48.7017 26.1245 47.9705C26.2922 47.2394 26.6233 46.5754 27.0829 46.0485L28.0421 44.9086L36.3388 35.0548L36.944 34.3379C38.0827 32.9902 39.6265 32.2331 41.2361 32.2331C42.8457 32.2331 44.3895 32.9902 45.5282 34.3379L49.855 39.4601C50.2514 39.9231 50.7856 40.1827 51.3422 40.1827C51.8988 40.1827 52.4331 39.9231 52.8294 39.4601L57.4558 33.9758C58.5945 32.6281 60.1383 31.8711 61.7479 31.8711C63.3575 31.8711 64.9013 32.6281 66.04 33.9758L70.6664 39.4601C71.0627 39.9231 71.597 40.1827 72.1536 40.1827C72.7102 40.1827 73.2444 39.9231 73.6408 39.4601L74.963 37.8901C75.2772 37.5175 75.6503 37.2219 76.061 37.0202C76.4717 36.8185 76.9119 36.7147 77.3564 36.7147C77.801 36.7147 78.2412 36.8185 78.6519 37.0202C79.0626 37.2219 79.4357 37.5175 79.7498 37.8901L79.8588 38.0227C80.1733 38.3949 80.4228 38.8369 80.5931 39.3234C80.7633 39.8099 80.8509 40.3314 80.8509 40.8581C80.8509 41.3847 80.7633 41.9062 80.5931 42.3928C80.4228 42.8793 80.1733 43.3212 79.8588 43.6934Z" fill="#011B33"/>
<path d="M122.275 30.536V53H116.803V39.528L111.779 53H107.363L102.307 39.496V53H96.8351V30.536H103.299L109.603 46.088L115.843 30.536H122.275ZM134.338 53.256C132.589 53.256 131.01 52.8827 129.602 52.136C128.215 51.3893 127.117 50.3227 126.306 48.936C125.517 47.5493 125.122 45.928 125.122 44.072C125.122 42.2373 125.527 40.6267 126.338 39.24C127.149 37.832 128.258 36.7547 129.666 36.008C131.074 35.2613 132.653 34.888 134.402 34.888C136.151 34.888 137.73 35.2613 139.138 36.008C140.546 36.7547 141.655 37.832 142.466 39.24C143.277 40.6267 143.682 42.2373 143.682 44.072C143.682 45.9067 143.266 47.528 142.434 48.936C141.623 50.3227 140.503 51.3893 139.074 52.136C137.666 52.8827 136.087 53.256 134.338 53.256ZM134.338 48.52C135.383 48.52 136.269 48.136 136.994 47.368C137.741 46.6 138.114 45.5013 138.114 44.072C138.114 42.6427 137.751 41.544 137.026 40.776C136.322 40.008 135.447 39.624 134.402 39.624C133.335 39.624 132.45 40.008 131.746 40.776C131.042 41.5227 130.69 42.6213 130.69 44.072C130.69 45.5013 131.031 46.6 131.714 47.368C132.418 48.136 133.293 48.52 134.338 48.52ZM157.465 34.952C159.556 34.952 161.22 35.6347 162.457 37C163.716 38.344 164.345 40.2 164.345 42.568V53H158.905V43.304C158.905 42.1093 158.596 41.1813 157.977 40.52C157.358 39.8587 156.526 39.528 155.481 39.528C154.436 39.528 153.604 39.8587 152.985 40.52C152.366 41.1813 152.057 42.1093 152.057 43.304V53H146.585V35.144H152.057V37.512C152.612 36.7227 153.358 36.104 154.297 35.656C155.236 35.1867 156.292 34.952 157.465 34.952ZM170.9 33.288C169.94 33.288 169.15 33.0107 168.532 32.456C167.934 31.88 167.636 31.176 167.636 30.344C167.636 29.4907 167.934 28.7867 168.532 28.232C169.15 27.656 169.94 27.368 170.9 27.368C171.838 27.368 172.606 27.656 173.204 28.232C173.822 28.7867 174.132 29.4907 174.132 30.344C174.132 31.176 173.822 31.88 173.204 32.456C172.606 33.0107 171.838 33.288 170.9 33.288ZM173.62 35.144V53H168.148V35.144H173.62ZM208.497 30.536L202.641 53H196.017L192.433 38.216L188.721 53H182.097L176.401 30.536H182.257L185.489 46.888L189.489 30.536H195.505L199.345 46.888L202.609 30.536H208.497ZM213.993 33.288C213.033 33.288 212.244 33.0107 211.625 32.456C211.028 31.88 210.729 31.176 210.729 30.344C210.729 29.4907 211.028 28.7867 211.625 28.232C212.244 27.656 213.033 27.368 213.993 27.368C214.932 27.368 215.7 27.656 216.297 28.232C216.916 28.7867 217.225 29.4907 217.225 30.344C217.225 31.176 216.916 31.88 216.297 32.456C215.7 33.0107 214.932 33.288 213.993 33.288ZM216.713 35.144V53H211.241V35.144H216.713ZM225.799 48.488H233.543V53H219.687V48.648L227.111 39.656H219.751V35.144H233.383V39.496L225.799 48.488ZM242.026 38.12C242.666 37.1387 243.466 36.3707 244.426 35.816C245.386 35.24 246.452 34.952 247.626 34.952V40.744H246.122C244.756 40.744 243.732 41.0427 243.05 41.64C242.367 42.216 242.026 43.24 242.026 44.712V53H236.554V35.144H242.026V38.12Z" fill="#011B33"/>
</g>
<defs>
<filter id="filter0_d_1021_12180" x="0" y="0.515625" width="274.851" height="83.9688" filterUnits="userSpaceOnUse" color-interpolation-filters="sRGB">
<feFlood flood-opacity="0" result="BackgroundImageFix"/>
<feColorMatrix in="SourceAlpha" type="matrix" values="0 0 0 0 0 0 0 0 0 0 0 0 0 0 0 0 0 0 127 0" result="hardAlpha"/>
<feOffset/>
<feGaussianBlur stdDeviation="1"/>
<feComposite in2="hardAlpha" operator="out"/>
<feColorMatrix type="matrix" values="0 0 0 0 0.00392157 0 0 0 0 0.105882 0 0 0 0 0.2 0 0 0 0.1 0"/>
<feBlend mode="normal" in2="BackgroundImageFix" result="effect1_dropShadow_1021_12180"/>
<feBlend mode="normal" in="SourceGraphic" in2="effect1_dropShadow_1021_12180" result="shape"/>
</filter>
</defs>
</svg>
