<svg width="20" height="22" viewBox="0 0 20 22" fill="none" xmlns="http://www.w3.org/2000/svg">
<path d="M3 16.5C3 15.9477 3.44772 15.5 4 15.5H11C11.5523 15.5 12 15.9477 12 16.5C12 17.0523 11.5523 17.5 11 17.5H4C3.44772 17.5 3 17.0523 3 16.5Z" fill="#333333"/>
<path d="M14 15.5C13.4477 15.5 13 15.9477 13 16.5C13 17.0523 13.4477 17.5 14 17.5H16C16.5523 17.5 17 17.0523 17 16.5C17 15.9477 16.5523 15.5 16 15.5H14Z" fill="#333333"/>
<path fill-rule="evenodd" clip-rule="evenodd" d="M6 0.5C6.55228 0.5 7 0.947715 7 1.5V2.5H13V1.5C13 0.947715 13.4477 0.5 14 0.5C14.5523 0.5 15 0.947715 15 1.5V2.5H16C18.2091 2.5 20 4.29086 20 6.5V17.5C20 19.7091 18.2091 21.5 16 21.5H4C1.79086 21.5 0 19.7091 0 17.5V6.5C0 4.29086 1.79086 2.5 4 2.5H5V1.5C5 0.947715 5.44772 0.5 6 0.5ZM13 4.5C13 5.05228 13.4477 5.5 14 5.5C14.5523 5.5 15 5.05228 15 4.5H16C17.1046 4.5 18 5.39543 18 6.5V7H2V6.5C2 5.39543 2.89543 4.5 4 4.5H5C5 5.05228 5.44772 5.5 6 5.5C6.55228 5.5 7 5.05228 7 4.5H13ZM18 9H2V17.5C2 18.6046 2.89543 19.5 4 19.5H16C17.1046 19.5 18 18.6046 18 17.5V9Z" fill="#333333"/>
</svg>
