<svg width="32" height="32" viewBox="0 0 32 32" fill="none" xmlns="http://www.w3.org/2000/svg">
<rect x="0.5" y="0.5" width="31" height="31" rx="7.5" stroke="#E4E7EC"/>
<path d="M8.66619 22.8438C9.73183 23.9998 11.7139 23.9998 15.6799 23.9998H16.3192C20.2852 23.9998 22.2682 23.9998 23.3338 22.8438M8.66619 22.8438C7.60056 21.6869 7.96642 19.9316 8.69727 16.4195C9.21677 13.9234 9.47608 12.6745 10.4627 11.9369M23.3338 22.8438C24.3994 21.6869 24.0336 19.9316 23.3027 16.4195C22.7832 13.9234 22.523 12.6745 21.5364 11.9369M21.5364 11.9369C20.5507 11.1992 19.1396 11.1992 16.3201 11.1992H15.679C12.8595 11.1992 11.4493 11.1992 10.4627 11.9369" stroke="#011B33" stroke-width="1.5"/>
<path d="M18.6636 15.2004L19.5516 20.0006M13.3354 15.2004L12.4474 20.0006M13.3354 11.2002V10.4001C13.3354 9.76357 13.6161 9.15309 14.1157 8.70298C14.6153 8.25287 15.293 8 15.9995 8C16.7061 8 17.3837 8.25287 17.8833 8.70298C18.3829 9.15309 18.6636 9.76357 18.6636 10.4001V11.2002" stroke="#011B33" stroke-width="1.5" stroke-linecap="round"/>
</svg>
