<svg width="40" height="40" viewBox="0 0 40 40" fill="none" xmlns="http://www.w3.org/2000/svg">
<path d="M0 20C0 8.95431 8.95431 0 20 0C31.0457 0 40 8.95431 40 20C40 31.0457 31.0457 40 20 40C8.95431 40 0 31.0457 0 20Z" fill="#FFEBCC"/>
<path d="M7 14.3669C7 13.072 7.38911 11.9665 8.20569 11.1719L9.62581 12.5538C8.04521 14.0864 9.42557 18.8512 13.9259 23.2347C18.4263 27.6182 23.3257 28.9601 24.9049 27.4247L26.325 28.8067C23.6609 31.3992 17.5927 29.5598 12.5129 24.6153C8.98959 21.1853 7 17.2938 7 14.3669Z" fill="#009A46"/>
<path d="M15.9548 30.0008C14.6241 30.0008 13.488 29.6222 12.67 28.8276L14.0902 27.4456C15.6679 28.981 20.5645 27.6377 25.0691 23.2556C29.5738 18.8735 30.9513 14.1087 29.3735 12.5733L30.7937 11.1914C33.4592 13.7839 31.5676 19.6889 26.4864 24.632C22.9617 28.0661 18.9626 30.0008 15.9548 30.0008Z" fill="#FF5805"/>
<path d="M26.9572 22.6535C26.0951 20.2378 24.3342 17.6564 21.9981 15.3845C16.9183 10.44 10.8501 8.59925 8.18596 11.1931C7.99708 11.3783 8.1604 11.8357 8.55235 12.2171C8.9443 12.5986 9.41437 12.7561 9.60324 12.5723C11.1824 11.037 16.079 12.3802 20.5822 16.7637C22.7124 18.8366 24.3001 21.1513 25.0655 23.2933C25.7358 25.1713 25.6705 26.6859 24.8895 27.446C24.6992 27.6298 24.8639 28.0886 25.2544 28.4686C25.645 28.8486 26.1164 29.0089 26.3067 28.8238C27.6715 27.4957 27.903 25.3012 26.9572 22.6535Z" fill="#F5AFCB"/>
<path d="M30.7911 11.1926C29.4235 9.86177 27.1712 9.63652 24.4474 10.5583C21.9665 11.3957 19.3123 13.1107 16.9776 15.3826C11.8978 20.3257 10.0062 26.2307 12.6703 28.8246C12.8606 29.0084 13.3307 28.8495 13.7227 28.4694C14.1146 28.0894 14.2779 27.6306 14.0876 27.4454C12.5056 25.9101 13.8902 21.1452 18.3949 16.7617C20.525 14.6888 22.9037 13.1439 25.1049 12.399C27.0349 11.7481 28.5913 11.8103 29.3738 12.5704C29.5627 12.7541 30.0342 12.5952 30.4247 12.2138C30.8153 11.8324 30.98 11.3764 30.7911 11.1926Z" fill="#FF9B00"/>
</svg>
