<svg width="18" height="20" viewBox="0 0 18 20" fill="none" xmlns="http://www.w3.org/2000/svg">
<path d="M9.83317 12.5007C9.83317 12.0404 9.46008 11.6673 8.99984 11.6673C8.5396 11.6673 8.1665 12.0404 8.1665 12.5007V14.1673C8.1665 14.6276 8.5396 15.0006 8.99984 15.0006C9.46007 15.0006 9.83317 14.6276 9.83317 14.1673V12.5007Z" fill="#667185"/>
<path fill-rule="evenodd" clip-rule="evenodd" d="M13.9998 5.83398C13.9998 3.07256 11.7613 0.833984 8.99984 0.833984C6.23841 0.833984 3.99984 3.07256 3.99984 5.83398V7.50065C2.15889 7.50065 0.666504 8.99303 0.666504 10.834V15.834C0.666504 17.6749 2.15889 19.1673 3.99984 19.1673H13.9998C15.8408 19.1673 17.3332 17.6749 17.3332 15.834V10.834C17.3332 8.99303 15.8408 7.50065 13.9998 7.50065V5.83398ZM5.6665 5.83398C5.6665 3.99304 7.15889 2.50065 8.99984 2.50065C10.8408 2.50065 12.3332 3.99304 12.3332 5.83398V7.50065H5.6665V5.83398ZM2.33317 10.834C2.33317 9.91351 3.07936 9.16732 3.99984 9.16732H13.9998C14.9203 9.16732 15.6665 9.91351 15.6665 10.834V15.834C15.6665 16.7545 14.9203 17.5006 13.9998 17.5006H3.99984C3.07936 17.5006 2.33317 16.7545 2.33317 15.834V10.834Z" fill="#667185"/>
</svg>
