<svg width="233" height="29" viewBox="0 0 233 29" fill="none" xmlns="http://www.w3.org/2000/svg">
<g filter="url(#filter0_d_1021_12192)">
<path d="M77.9332 15.6934L74.5201 19.7368C73.3814 21.0845 71.8377 21.8415 70.2281 21.8415C68.6184 21.8415 67.0747 21.0845 65.936 19.7368L61.3095 14.2561C61.1145 14.0242 60.8827 13.8403 60.6275 13.7148C60.3723 13.5893 60.0987 13.5247 59.8224 13.5247C59.546 13.5247 59.2724 13.5893 59.0172 13.7148C58.762 13.8403 58.5303 14.0242 58.3352 14.2561L53.7088 19.7368C52.5701 21.0845 51.0263 21.8415 49.4167 21.8415C47.8071 21.8415 46.2633 21.0845 45.1246 19.7368L40.8038 14.6181C40.4076 14.1562 39.874 13.8973 39.3181 13.8973C38.7622 13.8973 38.2286 14.1562 37.8324 14.6181L31.0002 22.7119L30.038 23.8375C29.596 24.3813 29.0385 24.7742 28.4241 24.9747C27.8097 25.1753 27.161 25.1762 26.5462 24.9773L26.5009 24.9594C25.9662 24.7571 25.4801 24.4062 25.0833 23.936C24.6864 23.4659 24.3902 22.8901 24.2194 22.2567C24.2194 22.2567 24.2194 22.2208 24.2043 22.2029C24.033 21.4729 24.0312 20.7017 24.1989 19.9705C24.3667 19.2394 24.6978 18.5754 25.1574 18.0485L26.1166 16.9086L34.4133 7.05476L35.0185 6.33786C36.1572 4.99016 37.7009 4.23313 39.3105 4.23313C40.9201 4.23313 42.4639 4.99016 43.6026 6.33786L47.9295 11.4601C48.3258 11.9231 48.8601 12.1827 49.4167 12.1827C49.9733 12.1827 50.5075 11.9231 50.9038 11.4601L55.5303 5.97582C56.669 4.62812 58.2127 3.87109 59.8224 3.87109C61.432 3.87109 62.9757 4.62812 64.1144 5.97582L68.7409 11.4601C69.1372 11.9231 69.6714 12.1827 70.2281 12.1827C70.7847 12.1827 71.3189 11.9231 71.7152 11.4601L73.0375 9.89011C73.3517 9.5175 73.7248 9.22189 74.1354 9.02021C74.5461 8.81853 74.9863 8.71472 75.4309 8.71472C75.8755 8.71472 76.3157 8.81853 76.7263 9.02021C77.137 9.22189 77.5101 9.5175 77.8243 9.89011L77.9332 10.0227C78.2478 10.3949 78.4973 10.8369 78.6675 11.3234C78.8378 11.8099 78.9254 12.3314 78.9254 12.8581C78.9254 13.3847 78.8378 13.9062 78.6675 14.3928C78.4973 14.8793 78.2478 15.3212 77.9332 15.6934Z" fill="#011B33" fill-opacity="0.5"/>
<path d="M113.493 5.652V22.5H109.389V12.396L105.621 22.5H102.309L98.5173 12.372V22.5H94.4133V5.652H99.2613L103.989 17.316L108.669 5.652H113.493ZM122.541 22.692C121.229 22.692 120.045 22.412 118.989 21.852C117.949 21.292 117.125 20.492 116.517 19.452C115.925 18.412 115.629 17.196 115.629 15.804C115.629 14.428 115.933 13.22 116.541 12.18C117.149 11.124 117.981 10.316 119.037 9.756C120.093 9.196 121.277 8.916 122.589 8.916C123.901 8.916 125.085 9.196 126.141 9.756C127.197 10.316 128.029 11.124 128.637 12.18C129.245 13.22 129.549 14.428 129.549 15.804C129.549 17.18 129.237 18.396 128.613 19.452C128.005 20.492 127.165 21.292 126.093 21.852C125.037 22.412 123.853 22.692 122.541 22.692ZM122.541 19.14C123.325 19.14 123.989 18.852 124.533 18.276C125.093 17.7 125.373 16.876 125.373 15.804C125.373 14.732 125.101 13.908 124.557 13.332C124.029 12.756 123.373 12.468 122.589 12.468C121.789 12.468 121.125 12.756 120.597 13.332C120.069 13.892 119.805 14.716 119.805 15.804C119.805 16.876 120.061 17.7 120.573 18.276C121.101 18.852 121.757 19.14 122.541 19.14ZM139.886 8.964C141.454 8.964 142.702 9.476 143.63 10.5C144.574 11.508 145.046 12.9 145.046 14.676V22.5H140.966V15.228C140.966 14.332 140.734 13.636 140.27 13.14C139.806 12.644 139.182 12.396 138.398 12.396C137.614 12.396 136.99 12.644 136.526 13.14C136.062 13.636 135.83 14.332 135.83 15.228V22.5H131.726V9.108H135.83V10.884C136.246 10.292 136.806 9.828 137.51 9.492C138.214 9.14 139.006 8.964 139.886 8.964ZM149.962 7.716C149.242 7.716 148.65 7.508 148.186 7.092C147.738 6.66 147.514 6.132 147.514 5.508C147.514 4.868 147.738 4.34 148.186 3.924C148.65 3.492 149.242 3.276 149.962 3.276C150.666 3.276 151.242 3.492 151.69 3.924C152.154 4.34 152.386 4.868 152.386 5.508C152.386 6.132 152.154 6.66 151.69 7.092C151.242 7.508 150.666 7.716 149.962 7.716ZM152.002 9.108V22.5H147.898V9.108H152.002ZM178.16 5.652L173.768 22.5H168.8L166.112 11.412L163.328 22.5H158.36L154.088 5.652H158.48L160.904 17.916L163.904 5.652H168.416L171.296 17.916L173.744 5.652H178.16ZM182.282 7.716C181.562 7.716 180.97 7.508 180.506 7.092C180.058 6.66 179.834 6.132 179.834 5.508C179.834 4.868 180.058 4.34 180.506 3.924C180.97 3.492 181.562 3.276 182.282 3.276C182.986 3.276 183.562 3.492 184.01 3.924C184.474 4.34 184.706 4.868 184.706 5.508C184.706 6.132 184.474 6.66 184.01 7.092C183.562 7.508 182.986 7.716 182.282 7.716ZM184.322 9.108V22.5H180.218V9.108H184.322ZM191.136 19.116H196.944V22.5H186.552V19.236L192.12 12.492H186.6V9.108H196.824V12.372L191.136 19.116ZM203.306 11.34C203.786 10.604 204.386 10.028 205.106 9.612C205.826 9.18 206.626 8.964 207.506 8.964V13.308H206.378C205.354 13.308 204.586 13.532 204.074 13.98C203.562 14.412 203.306 15.18 203.306 16.284V22.5H199.202V9.108H203.306V11.34Z" fill="#011B33" fill-opacity="0.5"/>
</g>
<defs>
<filter id="filter0_d_1021_12192" x="-1.92554" y="0.5" width="236.851" height="28" filterUnits="userSpaceOnUse" color-interpolation-filters="sRGB">
<feFlood flood-opacity="0" result="BackgroundImageFix"/>
<feColorMatrix in="SourceAlpha" type="matrix" values="0 0 0 0 0 0 0 0 0 0 0 0 0 0 0 0 0 0 127 0" result="hardAlpha"/>
<feOffset/>
<feGaussianBlur stdDeviation="1"/>
<feComposite in2="hardAlpha" operator="out"/>
<feColorMatrix type="matrix" values="0 0 0 0 0.00392157 0 0 0 0 0.105882 0 0 0 0 0.2 0 0 0 0.1 0"/>
<feBlend mode="normal" in2="BackgroundImageFix" result="effect1_dropShadow_1021_12192"/>
<feBlend mode="normal" in="SourceGraphic" in2="effect1_dropShadow_1021_12192" result="shape"/>
</filter>
</defs>
</svg>
