<svg width="21" height="22" viewBox="0 0 21 22" fill="none" xmlns="http://www.w3.org/2000/svg">
<path d="M11.5 14C11.5 13.4477 11.0523 13 10.5 13C9.94771 13 9.5 13.4477 9.5 14V16C9.5 16.5523 9.94771 17 10.5 17C11.0523 17 11.5 16.5523 11.5 16V14Z" fill="#333333"/>
<path fill-rule="evenodd" clip-rule="evenodd" d="M16.5 6C16.5 2.68629 13.8137 0 10.5 0C7.18629 0 4.5 2.68629 4.5 6V8C2.29086 8 0.5 9.79086 0.5 12V18C0.5 20.2091 2.29086 22 4.5 22H16.5C18.7091 22 20.5 20.2091 20.5 18V12C20.5 9.79086 18.7091 8 16.5 8V6ZM6.5 6C6.5 3.79086 8.29086 2 10.5 2C12.7091 2 14.5 3.79086 14.5 6V8H6.5V6ZM2.5 12C2.5 10.8954 3.39543 10 4.5 10H16.5C17.6046 10 18.5 10.8954 18.5 12V18C18.5 19.1046 17.6046 20 16.5 20H4.5C3.39543 20 2.5 19.1046 2.5 18V12Z" fill="#333333"/>
</svg>
