<svg width="32" height="33" viewBox="0 0 32 33" fill="none" xmlns="http://www.w3.org/2000/svg">
<rect y="0.5" width="32" height="32" rx="8" fill="#6FCF97" fill-opacity="0.1"/>
<path d="M17.5 19.5V24.5C17.5 25.3284 18.1716 26 19 26H24C24.8284 26 25.5 25.3284 25.5 24.5V19.5C25.5 18.6716 24.8284 18 24 18H19C18.1716 18 17.5 18.6716 17.5 19.5Z" fill="#011B33"/>
<path d="M6.5 19.5L6.5 24.5C6.5 25.3284 7.17157 26 8 26H13C13.8284 26 14.5 25.3284 14.5 24.5V19.5C14.5 18.6716 13.8284 18 13 18H8C7.17157 18 6.5 18.6716 6.5 19.5Z" fill="#011B33"/>
<path d="M6.5 8.5L6.5 13.5C6.5 14.3284 7.17157 15 8 15H13C13.8284 15 14.5 14.3284 14.5 13.5V8.5C14.5 7.67157 13.8284 7 13 7L8 7C7.17157 7 6.5 7.67157 6.5 8.5Z" fill="#011B33"/>
<path d="M17.5 8.5V13.5C17.5 14.3284 18.1716 15 19 15H24C24.8284 15 25.5 14.3284 25.5 13.5V8.5C25.5 7.67157 24.8284 7 24 7L19 7C18.1716 7 17.5 7.67157 17.5 8.5Z" fill="#011B33"/>
<path d="M17.5 19.5V24.5C17.5 25.3284 18.1716 26 19 26H24C24.8284 26 25.5 25.3284 25.5 24.5V19.5C25.5 18.6716 24.8284 18 24 18H19C18.1716 18 17.5 18.6716 17.5 19.5Z" fill="#011B33"/>
<path d="M6.5 19.5L6.5 24.5C6.5 25.3284 7.17157 26 8 26H13C13.8284 26 14.5 25.3284 14.5 24.5V19.5C14.5 18.6716 13.8284 18 13 18H8C7.17157 18 6.5 18.6716 6.5 19.5Z" fill="#011B33"/>
<path d="M6.5 8.5L6.5 13.5C6.5 14.3284 7.17157 15 8 15H13C13.8284 15 14.5 14.3284 14.5 13.5V8.5C14.5 7.67157 13.8284 7 13 7L8 7C7.17157 7 6.5 7.67157 6.5 8.5Z" fill="#011B33"/>
<path d="M17.5 8.5V13.5C17.5 14.3284 18.1716 15 19 15H24C24.8284 15 25.5 14.3284 25.5 13.5V8.5C25.5 7.67157 24.8284 7 24 7L19 7C18.1716 7 17.5 7.67157 17.5 8.5Z" fill="#011B33"/>
</svg>
