<svg width="14" height="15" viewBox="0 0 14 15" fill="none" xmlns="http://www.w3.org/2000/svg">
<path d="M1.97639 1.13664C1.58587 0.746119 0.952705 0.746119 0.56218 1.13664C0.171656 1.52717 0.171656 2.16033 0.56218 2.55086L5.51193 7.5006L0.56218 12.4504C0.171656 12.8409 0.171656 13.474 0.56218 13.8646C0.952705 14.2551 1.58587 14.2551 1.97639 13.8646L6.92614 8.91482L11.8759 13.8646C12.2664 14.2551 12.8996 14.2551 13.2901 13.8646C13.6806 13.474 13.6806 12.8409 13.2901 12.4504L8.34035 7.5006L13.2901 2.55086C13.6806 2.16033 13.6806 1.52717 13.2901 1.13664C12.8996 0.746119 12.2664 0.746119 11.8759 1.13664L6.92614 6.08639L1.97639 1.13664Z" fill="#333333"/>
</svg>
