<svg width="129" height="24" viewBox="0 0 129 24" fill="none" xmlns="http://www.w3.org/2000/svg">
<path d="M21.936 0.599998V23H17.392V9.816L12.688 23H9.424L4.72 9.816V23H0.176V0.599998H5.008L11.056 17.912L17.104 0.599998H21.936ZM33.373 23.32C30.7917 23.32 28.7757 22.584 27.325 21.112C25.8743 19.64 25.149 17.6027 25.149 15C25.149 12.3973 25.8743 10.36 27.325 8.888C28.7757 7.416 30.7917 6.68 33.373 6.68C35.9543 6.68 37.9703 7.416 39.421 8.888C40.893 10.36 41.629 12.3973 41.629 15C41.629 17.6027 40.893 19.64 39.421 21.112C37.9703 22.584 35.9543 23.32 33.373 23.32ZM33.373 20.28C34.6743 20.28 35.6983 19.8107 36.445 18.872C37.1917 17.9333 37.565 16.6427 37.565 15C37.565 13.3573 37.1917 12.0667 36.445 11.128C35.6983 10.1893 34.6743 9.72 33.373 9.72C32.0717 9.72 31.0477 10.1893 30.301 11.128C29.5757 12.0667 29.213 13.3573 29.213 15C29.213 16.6427 29.5757 17.9333 30.301 18.872C31.0477 19.8107 32.0717 20.28 33.373 20.28ZM44.1603 11.224C44.1603 9.28267 44.1176 7.87467 44.0323 7H47.8723C47.9789 7.896 48.0323 8.824 48.0323 9.784H48.1283C48.5123 8.84533 49.1843 8.09867 50.1443 7.544C51.1256 6.968 52.2136 6.68 53.4083 6.68C55.2429 6.68 56.6296 7.29867 57.5683 8.536C58.5069 9.77333 58.9763 11.5973 58.9763 14.008V23H54.9123V13.976C54.9123 12.5893 54.6883 11.576 54.2403 10.936C53.7923 10.296 53.0776 9.976 52.0963 9.976C50.9656 9.976 50.0376 10.3813 49.3123 11.192C48.6083 11.9813 48.2563 13.0053 48.2563 14.264V23H44.1603V11.224ZM65.0395 5.144C64.2502 5.144 63.6208 4.93067 63.1515 4.504C62.6822 4.056 62.4475 3.46933 62.4475 2.744C62.4475 2.01867 62.6822 1.44267 63.1515 1.016C63.6208 0.568 64.2502 0.344 65.0395 0.344C65.8288 0.344 66.4582 0.568 66.9275 1.016C67.4182 1.44267 67.6635 2.01867 67.6635 2.744C67.6635 3.46933 67.4288 4.056 66.9595 4.504C66.4902 4.93067 65.8502 5.144 65.0395 5.144ZM63.0235 7H67.0875V23H63.0235V7ZM91.6455 7L87.5495 23H83.9655L80.7655 11.416L77.5655 23H73.9495L69.8535 7H74.1095L76.1255 16.952L78.9415 7H82.5575L85.3735 16.952L87.3895 7H91.6455ZM96.4145 5.144C95.6252 5.144 94.9958 4.93067 94.5265 4.504C94.0572 4.056 93.8225 3.46933 93.8225 2.744C93.8225 2.01867 94.0572 1.44267 94.5265 1.016C94.9958 0.568 95.6252 0.344 96.4145 0.344C97.2038 0.344 97.8332 0.568 98.3025 1.016C98.7932 1.44267 99.0385 2.01867 99.0385 2.744C99.0385 3.46933 98.8038 4.056 98.3345 4.504C97.8652 4.93067 97.2252 5.144 96.4145 5.144ZM94.3985 7H98.4625V23H94.3985V7ZM101.485 20.824L110.061 10.072H101.933V7H115.021V8.984L106.573 19.928H115.373V23H101.485V20.824ZM117.759 10.904C117.759 9.09067 117.727 7.78933 117.663 7H121.535C121.621 7.832 121.663 8.77067 121.663 9.816V10.136H121.791C122.197 9.09067 122.911 8.25867 123.935 7.64C124.959 7 126.133 6.68 127.455 6.68C127.711 6.68 128.031 6.712 128.415 6.776V10.008C128.33 9.96533 128.074 9.944 127.647 9.944C126.623 9.944 125.663 10.2213 124.767 10.776C123.893 11.3307 123.189 12.0773 122.655 13.016C122.122 13.9333 121.855 14.9253 121.855 15.992V23H117.759V10.904Z" fill="#011B33"/>
</svg>
