<svg width="198" height="39" viewBox="0 0 198 39" fill="none" xmlns="http://www.w3.org/2000/svg">
<g clip-path="url(#clip0_395_10430)">
<path d="M82.3514 7.90332C81.3454 7.66824 80.2898 7.76584 79.3446 8.18135C78.3994 8.59685 77.616 9.30761 77.1133 10.2059C76.6106 11.1042 76.416 12.141 76.5588 13.1593C76.7017 14.1776 77.1742 15.1218 77.9049 15.8488C78.6356 16.5758 79.5846 17.046 80.6081 17.1881C81.6315 17.3302 82.6736 17.1365 83.5765 16.6364C84.4793 16.1362 85.1937 15.3568 85.6113 14.4164C86.0289 13.476 86.127 12.4257 85.8907 11.4248C85.6877 10.5687 85.2491 9.78575 84.6239 9.16376C83.9988 8.54178 83.2119 8.10532 82.3514 7.90332Z" fill="#26BCFD"/>
<path d="M76.5868 23.4559L72.1753 27.8451C70.7035 29.308 68.7082 30.1298 66.6277 30.1298C64.5473 30.1298 62.5519 29.308 61.0802 27.8451L55.1004 21.8956C54.8483 21.6439 54.5487 21.4442 54.2188 21.308C53.889 21.1718 53.5354 21.1016 53.1782 21.1016C52.8211 21.1016 52.4675 21.1718 52.1376 21.308C51.8078 21.4442 51.5082 21.6439 51.256 21.8956L45.2763 27.8451C43.8045 29.308 41.8092 30.1298 39.7287 30.1298C37.6483 30.1298 35.6529 29.308 34.1811 27.8451L28.5964 22.2886C28.0843 21.7871 27.3946 21.5061 26.6761 21.5061C25.9577 21.5061 25.268 21.7871 24.7559 22.2886L15.9251 31.0747L14.6815 32.2965C14.1102 32.8869 13.3896 33.3134 12.5955 33.5311C11.8014 33.7488 10.963 33.7498 10.1683 33.5339L10.1097 33.5144C9.4186 33.2948 8.79037 32.9139 8.27739 32.4035C7.76442 31.8932 7.38159 31.2681 7.16086 30.5805C7.16086 30.5805 7.16086 30.5416 7.14131 30.5222C6.91996 29.7297 6.91756 28.8925 7.13437 28.0988C7.35118 27.3051 7.77917 26.5843 8.37323 26.0124L9.61298 24.775L20.3366 14.0783L21.1188 13.3001C22.5906 11.8371 24.5859 11.0153 26.6664 11.0153C28.7468 11.0153 30.7422 11.8371 32.214 13.3001L37.8065 18.8605C38.3188 19.3631 39.0093 19.6448 39.7287 19.6448C40.4481 19.6448 41.1386 19.3631 41.6509 18.8605L47.6306 12.9071C49.1024 11.4441 51.0978 10.6223 53.1782 10.6223C55.2587 10.6223 57.254 11.4441 58.7258 12.9071L64.7055 18.8605C65.2178 19.3631 65.9083 19.6448 66.6277 19.6448C67.3472 19.6448 68.0377 19.3631 68.5499 18.8605L70.259 17.1562C70.6651 16.7517 71.1473 16.4308 71.6781 16.2119C72.2089 15.9929 72.7779 15.8802 73.3525 15.8802C73.9271 15.8802 74.4961 15.9929 75.0269 16.2119C75.5577 16.4308 76.0399 16.7517 76.446 17.1562L76.5868 17.3001C76.9933 17.7042 77.3159 18.184 77.5359 18.7121C77.756 19.2402 77.8692 19.8063 77.8692 20.378C77.8692 20.9497 77.756 21.5158 77.5359 22.0439C77.3159 22.5721 76.9933 23.0519 76.5868 23.4559Z" fill="#26BCFD"/>
<path d="M106.898 16.3035V30.5256H103.434V21.9964L100.253 30.5256H97.4571L94.2561 21.9761V30.5256H90.7917V16.3035H94.8842L98.8753 26.1496L102.826 16.3035H106.898ZM114.535 30.6877C113.428 30.6877 112.428 30.4513 111.537 29.9786C110.659 29.5059 109.963 28.8306 109.45 27.9527C108.95 27.0748 108.701 26.0483 108.701 24.8732C108.701 23.7117 108.957 22.692 109.47 21.814C109.984 20.9226 110.686 20.2406 111.577 19.7678C112.469 19.2951 113.468 19.0588 114.576 19.0588C115.683 19.0588 116.683 19.2951 117.574 19.7678C118.466 20.2406 119.168 20.9226 119.681 21.814C120.194 22.692 120.451 23.7117 120.451 24.8732C120.451 26.0348 120.188 27.0613 119.661 27.9527C119.148 28.8306 118.439 29.5059 117.534 29.9786C116.642 30.4513 115.643 30.6877 114.535 30.6877ZM114.535 27.6893C115.197 27.6893 115.758 27.4462 116.217 26.96C116.69 26.4737 116.926 25.7782 116.926 24.8732C116.926 23.9683 116.696 23.2727 116.237 22.7865C115.791 22.3003 115.238 22.0572 114.576 22.0572C113.9 22.0572 113.34 22.3003 112.894 22.7865C112.449 23.2592 112.226 23.9548 112.226 24.8732C112.226 25.7782 112.442 26.4737 112.874 26.96C113.32 27.4462 113.873 27.6893 114.535 27.6893ZM129.177 19.0993C130.501 19.0993 131.554 19.5315 132.338 20.3959C133.135 21.2468 133.533 22.4218 133.533 23.921V30.5256H130.089V24.387C130.089 23.6306 129.893 23.0431 129.501 22.6244C129.11 22.2057 128.583 21.9964 127.921 21.9964C127.259 21.9964 126.733 22.2057 126.341 22.6244C125.949 23.0431 125.753 23.6306 125.753 24.387V30.5256H122.289V19.2208H125.753V20.72C126.104 20.2203 126.577 19.8286 127.171 19.545C127.766 19.2478 128.434 19.0993 129.177 19.0993ZM137.683 18.0458C137.075 18.0458 136.575 17.8702 136.183 17.519C135.805 17.1544 135.616 16.7086 135.616 16.1819C135.616 15.6416 135.805 15.1959 136.183 14.8448C136.575 14.4801 137.075 14.2978 137.683 14.2978C138.277 14.2978 138.763 14.4801 139.141 14.8448C139.533 15.1959 139.729 15.6416 139.729 16.1819C139.729 16.7086 139.533 17.1544 139.141 17.519C138.763 17.8702 138.277 18.0458 137.683 18.0458ZM139.405 19.2208V30.5256H135.94V19.2208H139.405ZM161.486 16.3035L157.779 30.5256H153.585L151.316 21.1657L148.966 30.5256H144.772L141.166 16.3035H144.873L146.919 26.6561L149.452 16.3035H153.261L155.692 26.6561L157.758 16.3035H161.486ZM164.966 18.0458C164.358 18.0458 163.858 17.8702 163.467 17.519C163.088 17.1544 162.899 16.7086 162.899 16.1819C162.899 15.6416 163.088 15.1959 163.467 14.8448C163.858 14.4801 164.358 14.2978 164.966 14.2978C165.56 14.2978 166.046 14.4801 166.424 14.8448C166.816 15.1959 167.012 15.6416 167.012 16.1819C167.012 16.7086 166.816 17.1544 166.424 17.519C166.046 17.8702 165.56 18.0458 164.966 18.0458ZM166.688 19.2208V30.5256H163.223V19.2208H166.688ZM172.44 27.669H177.343V30.5256H168.57V27.7703L173.271 22.0774H168.611V19.2208H177.241V21.9761L172.44 27.669ZM182.713 21.105C183.119 20.4837 183.625 19.9974 184.233 19.6463C184.841 19.2816 185.516 19.0993 186.259 19.0993V22.7662H185.307C184.442 22.7662 183.794 22.9553 183.362 23.3335C182.929 23.6982 182.713 24.3465 182.713 25.2784V30.5256H179.249V19.2208H182.713V21.105Z" fill="white"/>
</g>
<defs>
<clipPath id="clip0_395_10430">
<rect width="198" height="38.4792" fill="white"/>
</clipPath>
</defs>
</svg>
