<svg width="80" height="32" viewBox="0 0 80 32" fill="none" xmlns="http://www.w3.org/2000/svg">
<path d="M78.5529 17.7429L73.5749 23.6401C71.9141 25.6057 69.6625 26.7098 67.3149 26.7098C64.9673 26.7098 62.7157 25.6057 61.0549 23.6401L54.3073 15.6464C54.0228 15.3083 53.6847 15.0401 53.3125 14.857C52.9403 14.674 52.5412 14.5797 52.1382 14.5797C51.7352 14.5797 51.3362 14.674 50.964 14.857C50.5918 15.0401 50.2537 15.3083 49.9692 15.6464L43.2216 23.6401C41.5608 25.6057 39.3092 26.7098 36.9616 26.7098C34.6139 26.7098 32.3624 25.6057 30.7016 23.6401L24.3997 16.1745C23.8218 15.5008 23.0436 15.1232 22.2328 15.1232C21.4221 15.1232 20.6438 15.5008 20.066 16.1745L10.1012 27.9793L8.69781 29.6209C8.05313 30.4141 7.24004 30.9871 6.34393 31.2796C5.44783 31.5722 4.50176 31.5735 3.60509 31.2834L3.53889 31.2573C2.75909 30.9622 2.05017 30.4504 1.47132 29.7647C0.892475 29.079 0.460483 28.2391 0.211407 27.3153C0.211407 27.3153 0.211408 27.2631 0.189342 27.2369C-0.0604312 26.1722 -0.0631336 25.0474 0.18152 23.981C0.426174 22.9146 0.909122 21.9461 1.57947 21.1777L2.97843 19.5152L15.0792 5.14338L15.9618 4.09778C17.6226 2.13215 19.8742 1.02803 22.2218 1.02803C24.5694 1.02803 26.821 2.13215 28.4818 4.09778L34.7925 11.5686C35.3706 12.2439 36.1497 12.6224 36.9616 12.6224C37.7734 12.6224 38.5526 12.2439 39.1306 11.5686L45.8782 3.56975C47.539 1.60412 49.7906 0.5 52.1382 0.5C54.4859 0.5 56.7374 1.60412 58.3982 3.56975L65.1459 11.5686C65.7239 12.2439 66.5031 12.6224 67.3149 12.6224C68.1267 12.6224 68.9059 12.2439 69.484 11.5686L71.4125 9.27873C71.8707 8.73527 72.4149 8.30413 73.0138 8.00998C73.6128 7.71582 74.2549 7.56442 74.9033 7.56442C75.5517 7.56442 76.1937 7.71582 76.7927 8.00998C77.3916 8.30413 77.9358 8.73527 78.394 9.27873L78.5529 9.47217C79.0117 10.015 79.3756 10.6596 79.6239 11.3692C79.8722 12.0788 80 12.8394 80 13.6075C80 14.3756 79.8722 15.1362 79.6239 15.8458C79.3756 16.5554 79.0117 17.2 78.5529 17.7429Z" fill="#26BCFD"/>
</svg>
