<svg width="322" height="56" viewBox="0 0 322 56" fill="none" xmlns="http://www.w3.org/2000/svg">
<path d="M133.927 11.5055C132.291 11.1634 130.574 11.3054 129.037 11.9101C127.5 12.5148 126.226 13.5492 125.408 14.8565C124.591 16.1638 124.274 17.6728 124.506 19.1547C124.739 20.6366 125.507 22.0107 126.696 23.0688C127.884 24.1268 129.427 24.8111 131.092 25.0179C132.756 25.2248 134.451 24.9429 135.919 24.215C137.387 23.4871 138.549 22.3528 139.228 20.9842C139.907 19.6155 140.067 18.0871 139.683 16.6304C139.352 15.3845 138.639 14.2451 137.622 13.3399C136.606 12.4347 135.326 11.7995 133.927 11.5055Z" fill="white"/>
<path d="M124.548 34.1351L117.374 40.5228C114.98 42.6519 111.735 43.8479 108.352 43.8479C104.969 43.8479 101.724 42.6519 99.3301 40.5228L89.6055 31.8643C89.1954 31.4981 88.7082 31.2075 88.1718 31.0092C87.6354 30.8109 87.0603 30.7089 86.4795 30.7089C85.8987 30.7089 85.3236 30.8109 84.7872 31.0092C84.2507 31.2075 83.7635 31.4981 83.3535 31.8643L73.6289 40.5228C71.2354 42.6519 67.9904 43.8479 64.607 43.8479C61.2237 43.8479 57.9787 42.6519 55.5852 40.5228L46.503 32.4362C45.6702 31.7065 44.5486 31.2975 43.3802 31.2975C42.2117 31.2975 41.0901 31.7065 40.2573 32.4362L25.8962 45.223L23.8737 47.0011C22.9446 47.8603 21.7728 48.481 20.4813 48.7978C19.1898 49.1147 17.8264 49.1161 16.5341 48.8019L16.4387 48.7736C15.3149 48.454 14.2932 47.8996 13.459 47.1569C12.6247 46.4141 12.0021 45.5044 11.6432 44.5038C11.6432 44.5038 11.6432 44.4472 11.6114 44.4188C11.2514 43.2656 11.2475 42.0472 11.6001 40.8921C11.9527 39.737 12.6487 38.688 13.6148 37.8556L15.631 36.0548L33.0704 20.4876L34.3424 19.355C36.7359 17.2259 39.9809 16.03 43.3643 16.03C46.7476 16.03 49.9926 17.2259 52.3861 19.355L61.4811 27.4473C62.3141 28.1787 63.4371 28.5888 64.607 28.5888C65.777 28.5888 66.9 28.1787 67.733 27.4473L77.4577 18.7831C79.8512 16.654 83.0961 15.458 86.4795 15.458C89.8629 15.458 93.1078 16.654 95.5013 18.7831L105.226 27.4473C106.059 28.1787 107.182 28.5888 108.352 28.5888C109.522 28.5888 110.645 28.1787 111.478 27.4473L114.257 24.9669C114.918 24.3783 115.702 23.9113 116.565 23.5926C117.428 23.274 118.354 23.11 119.288 23.11C120.223 23.11 121.148 23.274 122.011 23.5926C122.874 23.9113 123.659 24.3783 124.319 24.9669L124.548 25.1765C125.209 25.7644 125.734 26.4627 126.091 27.2313C126.449 27.9999 126.634 28.8238 126.634 29.6558C126.634 30.4878 126.449 31.3117 126.091 32.0803C125.734 32.8489 125.209 33.5471 124.548 34.1351Z" fill="white"/>
<path d="M175.098 19.2514V43.4062H169.214V28.9202L163.812 43.4062H159.063L153.627 28.8858V43.4062H147.743V19.2514H154.693L161.472 35.974L168.181 19.2514H175.098ZM188.069 43.6815C186.188 43.6815 184.49 43.2801 182.976 42.4772C181.485 41.6743 180.304 40.5274 179.432 39.0364C178.583 37.5453 178.159 35.8019 178.159 33.8062C178.159 31.8335 178.595 30.1016 179.466 28.6105C180.338 27.0966 181.531 25.9381 183.045 25.1353C184.559 24.3324 186.256 23.931 188.137 23.931C190.018 23.931 191.716 24.3324 193.23 25.1353C194.744 25.9381 195.937 27.0966 196.808 28.6105C197.68 30.1016 198.116 31.8335 198.116 33.8062C198.116 35.779 197.669 37.5224 196.774 39.0364C195.902 40.5274 194.698 41.6743 193.161 42.4772C191.647 43.2801 189.95 43.6815 188.069 43.6815ZM188.069 38.589C189.193 38.589 190.145 38.1761 190.924 37.3503C191.727 36.5245 192.129 35.3432 192.129 33.8062C192.129 32.2693 191.739 31.088 190.959 30.2622C190.202 29.4364 189.261 29.0234 188.137 29.0234C186.99 29.0234 186.038 29.4364 185.281 30.2622C184.524 31.065 184.146 32.2464 184.146 33.8062C184.146 35.3432 184.513 36.5245 185.247 37.3503C186.004 38.1761 186.945 38.589 188.069 38.589ZM212.936 23.9998C215.184 23.9998 216.974 24.7338 218.304 26.2019C219.657 27.6471 220.334 29.6428 220.334 32.189V43.4062H214.485V32.9804C214.485 31.6959 214.152 30.698 213.487 29.9869C212.822 29.2758 211.927 28.9202 210.803 28.9202C209.679 28.9202 208.784 29.2758 208.119 29.9869C207.454 30.698 207.121 31.6959 207.121 32.9804V43.4062H201.237V24.2062H207.121V26.7525C207.718 25.9037 208.521 25.2385 209.53 24.7568C210.539 24.2521 211.675 23.9998 212.936 23.9998ZM227.382 22.2105C226.35 22.2105 225.501 21.9123 224.836 21.3159C224.193 20.6966 223.872 19.9396 223.872 19.045C223.872 18.1274 224.193 17.3704 224.836 16.774C225.501 16.1546 226.35 15.8449 227.382 15.8449C228.391 15.8449 229.217 16.1546 229.859 16.774C230.525 17.3704 230.857 18.1274 230.857 19.045C230.857 19.9396 230.525 20.6966 229.859 21.3159C229.217 21.9123 228.391 22.2105 227.382 22.2105ZM230.307 24.2062V43.4062H224.423V24.2062H230.307ZM267.809 19.2514L261.513 43.4062H254.39L250.536 27.5095L246.545 43.4062H239.422L233.298 19.2514H239.594L243.07 36.8342L247.371 19.2514H253.84L257.969 36.8342L261.478 19.2514H267.809ZM273.719 22.2105C272.687 22.2105 271.838 21.9123 271.173 21.3159C270.531 20.6966 270.21 19.9396 270.21 19.045C270.21 18.1274 270.531 17.3704 271.173 16.774C271.838 16.1546 272.687 15.8449 273.719 15.8449C274.729 15.8449 275.554 16.1546 276.197 16.774C276.862 17.3704 277.195 18.1274 277.195 19.045C277.195 19.9396 276.862 20.6966 276.197 21.3159C275.554 21.9123 274.729 22.2105 273.719 22.2105ZM276.644 24.2062V43.4062H270.76V24.2062H276.644ZM286.413 38.5546H294.74V43.4062H279.841V38.7267L287.824 29.0579H279.91V24.2062H294.568V28.8858L286.413 38.5546ZM303.862 27.4062C304.55 26.351 305.41 25.5252 306.443 24.9288C307.475 24.3095 308.622 23.9998 309.883 23.9998V30.2277H308.266C306.798 30.2277 305.697 30.5489 304.963 31.1912C304.229 31.8105 303.862 32.9116 303.862 34.4944V43.4062H297.978V24.2062H303.862V27.4062Z" fill="white"/>
</svg>
