<svg width="265" height="46" viewBox="0 0 265 46" fill="none" xmlns="http://www.w3.org/2000/svg">
<path d="M44.992 5.688V45H35.416V21.424L26.624 45H18.896L10.048 21.368V45H0.472V5.688H11.784L22.816 32.904L33.736 5.688H44.992ZM66.1023 45.448C63.0409 45.448 60.2783 44.7947 57.8143 43.488C55.3876 42.1813 53.4649 40.3147 52.0463 37.888C50.6649 35.4613 49.9743 32.624 49.9743 29.376C49.9743 26.1653 50.6836 23.3467 52.1022 20.92C53.5209 18.456 55.4623 16.5707 57.9263 15.264C60.3903 13.9573 63.1529 13.304 66.2143 13.304C69.2756 13.304 72.0383 13.9573 74.5023 15.264C76.9663 16.5707 78.9076 18.456 80.3263 20.92C81.7449 23.3467 82.4543 26.1653 82.4543 29.376C82.4543 32.5867 81.7263 35.424 80.2703 37.888C78.8516 40.3147 76.8916 42.1813 74.3903 43.488C71.9263 44.7947 69.1636 45.448 66.1023 45.448ZM66.1023 37.16C67.9316 37.16 69.4809 36.488 70.7503 35.144C72.0569 33.8 72.7103 31.8773 72.7103 29.376C72.7103 26.8747 72.0756 24.952 70.8063 23.608C69.5743 22.264 68.0436 21.592 66.2143 21.592C64.3476 21.592 62.7983 22.264 61.5663 23.608C60.3343 24.9147 59.7183 26.8373 59.7183 29.376C59.7183 31.8773 60.3156 33.8 61.5103 35.144C62.7423 36.488 64.2729 37.16 66.1023 37.16ZM106.575 13.416C110.233 13.416 113.145 14.6107 115.311 17C117.513 19.352 118.615 22.6 118.615 26.744V45H109.095V28.032C109.095 25.9413 108.553 24.3173 107.471 23.16C106.388 22.0027 104.932 21.424 103.103 21.424C101.273 21.424 99.8172 22.0027 98.7345 23.16C97.6518 24.3173 97.1105 25.9413 97.1105 28.032V45H87.5345V13.752H97.1105V17.896C98.0812 16.5147 99.3878 15.432 101.031 14.648C102.673 13.8267 104.521 13.416 106.575 13.416ZM130.085 10.504C128.405 10.504 127.024 10.0187 125.941 9.048C124.896 8.04 124.373 6.808 124.373 5.352C124.373 3.85867 124.896 2.62666 125.941 1.656C127.024 0.647997 128.405 0.143997 130.085 0.143997C131.728 0.143997 133.072 0.647997 134.117 1.656C135.2 2.62666 135.741 3.85867 135.741 5.352C135.741 6.808 135.2 8.04 134.117 9.048C133.072 10.0187 131.728 10.504 130.085 10.504ZM134.845 13.752V45H125.269V13.752H134.845ZM195.88 5.688L185.633 45H174.041L167.769 19.128L161.273 45H149.681L139.713 5.688H149.961L155.617 34.304L162.617 5.688H173.145L179.865 34.304L185.577 5.688H195.88ZM205.499 10.504C203.819 10.504 202.438 10.0187 201.355 9.048C200.31 8.04 199.787 6.808 199.787 5.352C199.787 3.85867 200.31 2.62666 201.355 1.656C202.438 0.647997 203.819 0.143997 205.499 0.143997C207.142 0.143997 208.486 0.647997 209.531 1.656C210.614 2.62666 211.155 3.85867 211.155 5.352C211.155 6.808 210.614 8.04 209.531 9.048C208.486 10.0187 207.142 10.504 205.499 10.504ZM210.259 13.752V45H200.683V13.752H210.259ZM226.159 37.104H239.711V45H215.463V37.384L228.455 21.648H215.575V13.752H239.431V21.368L226.159 37.104ZM254.556 18.96C255.676 17.2427 257.076 15.8987 258.756 14.928C260.436 13.92 262.302 13.416 264.356 13.416V23.552H261.724C259.334 23.552 257.542 24.0747 256.348 25.12C255.153 26.128 254.556 27.92 254.556 30.496V45H244.98V13.752H254.556V18.96Z" fill="#011B33"/>
</svg>
