<svg width="24" height="25" viewBox="0 0 24 25" fill="none" xmlns="http://www.w3.org/2000/svg">
<path fill-rule="evenodd" clip-rule="evenodd" d="M8 3.5V5.62602C9.72523 6.07006 11 7.63616 11 9.5C11 11.3638 9.72523 12.9299 8 13.374V21.5C8 22.0523 7.55228 22.5 7 22.5C6.44772 22.5 6 22.0523 6 21.5L6 13.374C4.27477 12.9299 3 11.3638 3 9.5C3 7.63616 4.27477 6.07006 6 5.62602L6 3.5C6 2.94772 6.44772 2.5 7 2.5C7.55228 2.5 8 2.94772 8 3.5ZM5 9.5C5 8.39543 5.89543 7.5 7 7.5C8.10457 7.5 9 8.39543 9 9.5C9 10.6046 8.10457 11.5 7 11.5C5.89543 11.5 5 10.6046 5 9.5Z" fill="#011B33"/>
<path fill-rule="evenodd" clip-rule="evenodd" d="M16 19.374V21.5C16 22.0523 16.4477 22.5 17 22.5C17.5523 22.5 18 22.0523 18 21.5V19.374C19.7252 18.9299 21 17.3638 21 15.5C21 13.6362 19.7252 12.0701 18 11.626V3.5C18 2.94772 17.5523 2.5 17 2.5C16.4477 2.5 16 2.94772 16 3.5V11.626C14.2748 12.0701 13 13.6362 13 15.5C13 17.3638 14.2748 18.9299 16 19.374ZM19 15.5C19 14.3954 18.1046 13.5 17 13.5C15.8954 13.5 15 14.3954 15 15.5C15 16.6046 15.8954 17.5 17 17.5C18.1046 17.5 19 16.6046 19 15.5Z" fill="#011B33"/>
</svg>
