<svg width="24" height="25" viewBox="0 0 24 25" fill="none" xmlns="http://www.w3.org/2000/svg">
<path d="M13 9.5C13 8.94772 12.5523 8.5 12 8.5C11.4477 8.5 11 8.94772 11 9.5V11.5H9C8.44772 11.5 8 11.9477 8 12.5C8 13.0523 8.44772 13.5 9 13.5H11V15.5C11 16.0523 11.4477 16.5 12 16.5C12.5523 16.5 13 16.0523 13 15.5V13.5H15C15.5523 13.5 16 13.0523 16 12.5C16 11.9477 15.5523 11.5 15 11.5H13V9.5Z" fill="#011B33"/>
<path fill-rule="evenodd" clip-rule="evenodd" d="M12 2.5C6.47715 2.5 2 6.97715 2 12.5C2 18.0228 6.47715 22.5 12 22.5C17.5228 22.5 22 18.0228 22 12.5C22 6.97715 17.5228 2.5 12 2.5ZM4 12.5C4 8.08172 7.58172 4.5 12 4.5C16.4183 4.5 20 8.08172 20 12.5C20 16.9183 16.4183 20.5 12 20.5C7.58172 20.5 4 16.9183 4 12.5Z" fill="#011B33"/>
</svg>
