<svg width="12" height="13" viewBox="0 0 12 13" fill="none" xmlns="http://www.w3.org/2000/svg">
<path d="M2.64645 5.35355C2.45118 5.15829 2.45118 4.8417 2.64645 4.64644C2.84171 4.45118 3.15829 4.45118 3.35355 4.64644L5.03388 6.32677L5.68373 5.79606C5.88793 5.6293 6.18653 5.64974 6.36609 5.84278L8.00142 7.60075L8.63523 6.92469C8.8241 6.72323 9.14051 6.71303 9.34197 6.90189C9.54343 7.09076 9.55363 7.40718 9.36477 7.60863L8.36477 8.6753C8.27001 8.77637 8.13757 8.8336 7.99903 8.83333C7.86049 8.83306 7.72827 8.77532 7.63391 8.67388L5.95319 6.86711L5.31627 7.38726C5.11744 7.54963 4.82796 7.53506 4.64645 7.35355L2.64645 5.35355Z" fill="#219653"/>
<path fill-rule="evenodd" clip-rule="evenodd" d="M2.5 2C1.39543 2 0.5 2.89543 0.5 4V9C0.5 10.1046 1.39543 11 2.5 11H9.5C10.6046 11 11.5 10.1046 11.5 9V4C11.5 2.89543 10.6046 2 9.5 2H2.5ZM1.5 4C1.5 3.44772 1.94772 3 2.5 3H9.5C10.0523 3 10.5 3.44772 10.5 4V9C10.5 9.55228 10.0523 10 9.5 10H2.5C1.94772 10 1.5 9.55228 1.5 9V4Z" fill="#219653"/>
</svg>
