<svg width="32" height="32" viewBox="0 0 32 32" fill="none" xmlns="http://www.w3.org/2000/svg">
<rect x="0.5" y="0.5" width="31" height="31" rx="7.5" fill="white"/>
<rect x="0.5" y="0.5" width="31" height="31" rx="7.5" stroke="#E4E7EC"/>
<path fill-rule="evenodd" clip-rule="evenodd" d="M16 9.33203C15.6824 9.33203 15.3687 9.40216 15.0812 9.53742L10.8646 11.5217C9.92994 11.9616 9.33337 12.9016 9.33337 13.9346V18.6654C9.33337 19.3305 9.71753 19.9359 10.3194 20.2191L15.0812 22.46C15.3687 22.5952 15.6824 22.6654 16 22.6654C16.3177 22.6654 16.6314 22.5952 16.9188 22.46L21.6807 20.2191C22.2826 19.9359 22.6667 19.3305 22.6667 18.6654V13.9346C22.6667 12.9016 22.0701 11.9616 21.1355 11.5217L16.9188 9.53742C16.6314 9.40216 16.3177 9.33203 16 9.33203ZM21.3334 17.5867L16.6667 15.2533V10.8924L20.5678 12.7282C21.0351 12.9481 21.3334 13.4181 21.3334 13.9346V17.5867ZM16 16.4107L21.1562 18.9888C21.1425 18.9976 21.128 19.0056 21.113 19.0127L16.3511 21.2536C16.2413 21.3052 16.1214 21.332 16 21.332C15.8787 21.332 15.7588 21.3052 15.649 21.2536L10.8871 19.0127C10.8721 19.0056 10.8576 18.9976 10.8438 18.9888L16 16.4107ZM15.3334 15.2533L10.6667 17.5867V13.9346C10.6667 13.4181 10.965 12.9481 11.4323 12.7282L15.3334 10.8924V15.2533Z" fill="#011B33"/>
</svg>
