<svg width="21" height="20" viewBox="0 0 21 20" fill="none" xmlns="http://www.w3.org/2000/svg">
<path fill-rule="evenodd" clip-rule="evenodd" d="M9.5 0C4.52944 0 0.5 4.02944 0.5 9C0.5 13.9706 4.52944 18 9.5 18C11.625 18 13.578 17.2635 15.1177 16.0319L18.7929 19.7071C19.1834 20.0976 19.8166 20.0976 20.2071 19.7071C20.5976 19.3166 20.5976 18.6834 20.2071 18.2929L16.5319 14.6177C17.7635 13.078 18.5 11.125 18.5 9C18.5 4.02944 14.4706 0 9.5 0ZM2.5 9C2.5 5.13401 5.63401 2 9.5 2C13.366 2 16.5 5.13401 16.5 9C16.5 12.866 13.366 16 9.5 16C5.63401 16 2.5 12.866 2.5 9Z" fill="#828282"/>
</svg>
