<svg width="11" height="12" viewBox="0 0 11 12" fill="none" xmlns="http://www.w3.org/2000/svg">
<path d="M6.75759 0.158954C5.59318 -0.139398 4.37136 -0.0155259 3.27729 0.511797C2.18321 1.03912 1.27654 1.94115 0.694673 3.08118C0.112807 4.2212 -0.112531 5.53709 0.0528082 6.82939C0.218147 8.1217 0.765154 9.31998 1.61092 10.2426C2.45669 11.1653 3.55511 11.762 4.73973 11.9424C5.92434 12.1228 7.13057 11.8769 8.17559 11.2422C9.22062 10.6074 10.0475 9.61831 10.5309 8.42478C11.0142 7.23125 11.1278 5.89835 10.8543 4.62809C10.6193 3.54159 10.1116 2.54796 9.38796 1.75859C8.66438 0.969223 7.75355 0.415313 6.75759 0.158954Z" fill="#26BCFD"/>
</svg>
